<?xml version="1.0" encoding="utf-8"?>
<!-- Generator: Adobe Illustrator 25.1.0, SVG Export Plug-In . SVG Version: 6.00 Build 0)  -->
<svg version="1.1" id="cat" xmlns="http://www.w3.org/2000/svg" xmlns:xlink="http://www.w3.org/1999/xlink" x="0px" y="0px"
	 viewBox="0 0 1024 1024" style="enable-background:new 0 0 1024 1024;" xml:space="preserve">
<style type="text/css">
	.st0{fill:#FFFFFF;}
	.st1{fill:#040000;}
</style>
<path id="body" class="st0" d="M792.6,475.3l0.1-28.3c-0.2-7-8.1-9.7-14.6-7.1l-45.4,18.3c-3,1.2-6.4,0.9-9.1-0.8
	c-18.1-11.5-92.9-56.1-203.4-86.1c-2.1-0.6-4-1.9-5.4-3.6l-30.2-40c-3.7-4.9-10.8-5.3-15-1.1c-11.4,11.4-30.7,31.1-31.6,34.2
	c-1.3,4.5-106.6,17.8-232.6,183.9c-1.3,1.7-2,8.8-2,11v15.1c0,3.4,1.7,6.5,4.5,8.4l6,3.9c1.5,1,3.3,1.5,5.1,1.6l45,1.8
	c1.1,0,2.1-0.1,3.2-0.4l71-20.6c1.6-0.5,3.3-0.5,5-0.1L577,618.4c3.7,0.8,7.6-0.5,10-3.5l7.7-9.7c1.1-1.4,2.5-2.5,4.2-3.1
	c5.8-2,10.4,2.7,6,9.6c-3.8,6-14.2,17.6-19.1,23c-1.7,1.9-2.7,4.4-2.6,6.9c0.7,30.2,2.3,25.8,27.5,33.8
	c26.3,8.3,78.2-14.1,78.2-14.1s51.5-19.4,61-7.6c1.3,1.6,3,2.9,5,3.4l51,12.9c6.8,1.7,13.2-4,12.4-11c-1.9-14.7-11.1-43.7-44.3-97.9
	c-1.4-2.3-1.8-5.1-1.1-7.8c2.2-8.2,6.7-27.1,5.6-38.7C778.1,513.1,792,476.9,792.6,475.3"/>
<ellipse id="right_x5F_eye" transform="matrix(0.3058 -0.9521 0.9521 0.3058 -118.4351 941.5907)" class="st1" cx="586.4" cy="552" rx="16" ry="12.3"/>
<ellipse id="left_x5F_eye" transform="matrix(0.3058 -0.9521 0.9521 0.3058 -195.2096 712.6843)" class="st1" cx="391.1" cy="490.2" rx="16" ry="14.3"/>
<path id="mouth" class="st1" d="M439.1,507.8c-0.9,6.6,0.3,23.3,36.6,19.8c1.1-0.1,2.2,0.4,2.8,1.3c2.7,4.1,12.3,15.1,37.2,9.2
	c1.3-0.3,2.3-1.5,2.3-2.9v-2.7c0-1.8-1.7-3.2-3.5-2.9c-8.6,1.5-30.2,3.6-29.7-14.6c0.1-2.1-2-3.7-4-2.9c-9.1,3.6-29,9.4-36-5.1
	c-0.5-1-1.5-1.7-2.7-1.7h0C440.6,505.2,439.3,506.3,439.1,507.8z"/>
</svg>
